<svg xmlns="http://www.w3.org/2000/svg" version="1.1" xmlns:xlink="http://www.w3.org/1999/xlink" xmlns:svgjs="http://svgjs.com/svgjs" width="512" height="512" x="0" y="0" viewBox="0 0 24 24" style="enable-background:new 0 0 512 512" xml:space="preserve" class=""><g><symbol id="material_x5F_system_x5F_icon_x5F_border" viewBox="0 -48 48 48"></symbol><symbol id="material_x5F_system_x5F_icon_x5F_grid" viewBox="-.0002 -48 48.0002 48.0002"><g><g clip-path="url(#SVGID_2_)"><g></g><g></g><g><path d="m47.75-.25v-47.5h-47.5v47.5zm.25.25h-48v-48h48z" fill="#000000" data-original="#000000"></path></g></g></g></symbol><clipPath id="SVGID_2_"><path id="SVGID_1_" d="m0-48h48v48h-48z" fill="#000000" data-original="#000000"></path></clipPath><symbol id="material_x5F_system_x5F_icon_x5F_keylines" viewBox="-.0002 -48.0001 48.0002 48.0001"><g opacity=".4"><g clip-path="url(#SVGID_4_)"><path d="m47.75-.25v-47.5h-47.5v47.5zm.25.25h-48v-48h48z" fill="#000000" data-original="#000000"></path></g></g></symbol><clipPath id="SVGID_4_"><path id="SVGID_3_" d="m0-48h48v48h-48z" fill="#000000" data-original="#000000"></path></clipPath><g id="Backup" display="none"><g display="inline"><path d="m19 11v7c0 1.1046-.8954 2-2 2h-10c-1.1046 0-2-.8954-2-2v-7c0-1.1046.8954-2 2-2h10c1.1046 0 2 .8954 2 2z" fill="#000000" data-original="#000000"></path></g><g display="inline"><path d="m12 12c.5523 0 1 .4477 1 1v2c0 .5523-.4477 1-1 1-.5523 0-1-.4477-1-1v-2c0-.5523.4477-1 1-1z" fill="#ffffff" data-original="#ffffff"></path></g></g><g id="Grid" display="none" transform="scale(.5 -.5)"><use id="XMLID_60_" display="inline" height="48" opacity=".15" width="48" xlink:href="#material_x5F_system_x5F_icon_x5F_grid" y="-48"></use><use id="XMLID_59_" display="inline" height="48" width="48" xlink:href="#material_x5F_system_x5F_icon_x5F_border" y="-48"></use></g><g id="Keyline" display="none"><use id="XMLID_16_" display="inline" height="48" transform="scale(.5 -.5)" width="48" xlink:href="#material_x5F_system_x5F_icon_x5F_keylines" y="-48"></use></g><g id="Outline" display="none"><g display="inline"><g><path d="m12 4c-2.5977 0-4.7059 2.1082-4.7059 4.7059v.9412h-.3765c-.8317 0-1.5059.6742-1.5059 1.5059v7.3412c.0001.8316.6743 1.5058 1.5059 1.5058h10.1647c.8317 0 1.5059-.6742 1.5059-1.5059v-7.3412c0-.8317-.6742-1.5059-1.5059-1.5059h-.3765v-.9411c.0001-2.5977-2.1081-4.7059-4.7058-4.7059zm-2.8235 5.6471v-.9412c0-1.5586 1.2649-2.8235 2.8235-2.8235s2.8235 1.2649 2.8235 2.8235v.9412zm-1.8824 8.4706v-6.5882h9.4118v6.5882z" fill="#000000" data-original="#000000"></path></g><g><path d="m12 16.8083c-.5082 0-.9199-.4125-.9199-.9203v-2.1289c0-.5078.4117-.9203.9199-.9203s.9199.4125.9199.9203v2.1289c0 .5078-.4117.9203-.9199.9203z" fill="#000000" data-original="#000000"></path></g></g></g><g id="Filled"><path d="m16.7059 9.6471v-.9412c0-2.5947-2.1112-4.7059-4.7059-4.7059s-4.7059 2.1112-4.7059 4.7059v.9412c-1.0396 0-1.8824.8427-1.8824 1.8824v6.5882c.0001 1.0395.8428 1.8823 1.8824 1.8823h9.4118c1.0396 0 1.8824-.8428 1.8824-1.8824v-6.5882c-.0001-1.0396-.8428-1.8823-1.8824-1.8823zm-7.5294-.9412c0-1.557 1.2665-2.8235 2.8235-2.8235s2.8235 1.2665 2.8235 2.8235v.9412h-5.647zm3.7646 6.5882c0 .5198-.4214.9412-.9412.9412s-.9412-.4214-.9412-.9412v-1.8824c0-.5198.4214-.9412.9412-.9412s.9412.4214.9412.9412z" fill="#000000" data-original="#000000"></path></g><g id="Two_Tone" display="none"><g display="inline"><path d="m17 11.5h-10v-3c0-2.7568 2.2432-5 5-5s5 2.2432 5 5zm-8-2h6v-1c0-1.6543-1.3457-3-3-3s-3 1.3457-3 3z" fill="#000000" data-original="#000000"></path><g><path d="m19 11.5v7c0 1.1046-.8954 2-2 2h-10c-1.1046 0-2-.8954-2-2v-7c0-1.1046.8954-2 2-2h10c1.1046 0 2 .8954 2 2z" fill="#00d6a2" data-original="#00d6a2"></path></g><g><path d="m12 12.5c.5523 0 1 .4477 1 1v2c0 .5523-.4477 1-1 1-.5523 0-1-.4477-1-1v-2c0-.5523.4477-1 1-1z" fill="#000000" data-original="#000000"></path></g></g></g></g></svg>